<?xml version="1.0" encoding="utf-8"?>
<!-- Uploaded to: SVG Repo, www.svgrepo.com, Generator: SVG Repo Mixer Tools -->
<svg width="800px" height="800px" viewBox="0 -43.88 433.855 433.855" xmlns="http://www.w3.org/2000/svg"><defs><style>.a{fill:#ffffff;}.b{fill:#211715;}.c{fill:#5394cf;}.d{fill:#645d5c;}.e{fill:#cfcfcf;}.f{fill:#f3736f;}</style></defs><path class="a" d="M10.256,225.881c0-40.926-.006-74.082-.006-118.357-3.611,0-5.629.183-8.233.183v22.932C2.013,179.781,2,248.067,2,344.088c2.2,0,4.165.008,8.262.008,0-26.021,0-73.984-.005-107.661l413.346-.024c-.008,26.595-.01,73.528-.01,107.677,2.2,0,4.165.008,8.262.008,0-59.84-.012-151.447-.012-236.572-3.611,0-5.629.183-8.232.183,0,8.278,0,15.831,0,22.932,0,29.517-.008,52.557-.008,96.116-14.143,0-101.941.007-206.348.012l-207,.012Z"/><path class="b" d="M12.256,225.881q0-45.314-.006-90.627v-27.73a2.029,2.029,0,0,0-2-2c-2.746.011-5.487.169-8.233.183a2.03,2.03,0,0,0-2,2q0,39.809-.006,79.617Q.005,233.713,0,280.1q0,31.992,0,63.985a2.028,2.028,0,0,0,2,2q4.131,0,8.262.008a2.029,2.029,0,0,0,2-2q0-41.859,0-83.718,0-11.971,0-23.943l-2,2h13.4l31.03,0,44.747,0,53.688,0,58.425,0,58.813,0,54.854,0,46.7,0,33.839,0H423.6l-2-2q-.014,41.845-.01,83.691v23.986a2.028,2.028,0,0,0,2,2q4.131,0,8.262.008a2.029,2.029,0,0,0,2-2q0-41.193,0-82.387,0-48.695-.007-97.388,0-28.4,0-56.8a2.029,2.029,0,0,0-2-2c-2.746.011-5.487.169-8.232.183a2.03,2.03,0,0,0-2,2q0,44.305-.008,88.609,0,15.22,0,30.439l2-2-44.292,0-88.708,0-113.052.006-101.484.006-62,0H10.256l2,2v-.9c0-2.574-4-2.578-4,0v.9a2.029,2.029,0,0,0,2,2l55.548,0,97.825-.006,113.82-.006,92.929-.005,50.775,0H423.6a2.028,2.028,0,0,0,2-2q0-44.921.007-89.84,0-14.6,0-29.208l-2,2c2.745-.014,5.486-.172,8.232-.183l-2-2q0,50.221,0,100.443,0,46.18.006,92.362,0,21.883,0,43.767l2-2q-4.131,0-8.262-.008l2,2q0-43.787,0-87.574,0-10.052,0-20.1a2.029,2.029,0,0,0-2-2h-12.1l-30.014,0-44.006,0-53.231,0-58.25,0-58.919,0-55.243,0-47.371,0-34.79,0H10.257a2.029,2.029,0,0,0-2,2q0,43.832.005,87.663v20l2-2q-4.131,0-8.262-.008l2,2q0-53.93,0-107.859,0-40.929.009-81.86,0-23.331,0-46.662l-2,2c2.746-.014,5.487-.172,8.233-.183l-2-2q0,46.174,0,92.347,0,13,0,26.01C8.256,228.455,12.256,228.459,12.256,225.881Z"/><path class="a" d="M423.6,226.756"/><path class="b" d="M423.6,228.756c2.574,0,2.578-4,0-4s-2.578,4,0,4Z"/><path class="b" d="M423.61,123.661h8.233a2,2,0,0,0,0-4H423.61a2,2,0,0,0,0,4Z"/><path class="b" d="M2.017,123.661H10.25a2,2,0,0,0,0-4H2.017a2,2,0,1,0,0,4Z"/><path class="a" d="M413.647,218.494c-63.21.038-367.074.321-402.931.325,0-6.264,0-192.788,0-214.608a1.993,1.993,0,0,1,2-1.994l408.446-.029a1.978,1.978,0,0,1,1.983,1.986C423.127,26.292,423,213.949,423,218.489l-9.348,0"/><path class="b" d="M413.647,216.494l-24.928.017-35.854.029-43.939.037-49.183.042-51.583.045-51.144.044-47.651.04-41.772.033-32.82.025q-10.512.007-21.025.012H10.716l2,2V7.96c0-.606-.339-3.409.047-3.743.472-.409,3.177,0,3.83,0h4.95l29.614,0,42.679,0,51.459,0,56.461,0,57.768,0,54.668,0,47.875,0,37.28,0h20.566c.821,0,1.049-.213,1.227.445.332,1.222,0,3.018,0,4.283q0,3.053,0,6.105-.006,8.447-.011,16.894-.017,23.417-.032,46.834-.019,27.146-.038,54.29l-.033,48.9L421,213.29q0,2.6,0,5.2l2-2-9.348,0c-2.574,0-2.578,4,0,4l9.348,0a2.029,2.029,0,0,0,2-2q0-9.378.012-18.756.014-21.265.029-42.531.018-26.934.037-53.867.018-26.031.035-52.06.014-18.943.026-37.888l0-5.682c0-1.662.3-3.791-.439-5.306C423.064-.956,416.25.188,413.055.188l-30.3,0-43.437,0L287.128.2,229.817.2l-57.932,0-54.964,0L69.4.213l-36.4,0H20.329c-2.949,0-8.793-.972-10.757,1.575C8.4,3.317,8.715,5.581,8.715,7.423v211.4a2.029,2.029,0,0,0,2,2q8.848,0,17.7-.009,15.095-.009,30.189-.022l39.838-.031,46.647-.039,50.613-.043,51.737-.045,49.8-.043,45.489-.038,38.1-.031q13.935-.012,27.872-.021l4.951,0c2.574,0,2.578-4,0-4Z"/><path class="a" d="M38.965,225.092c0-7.11.064-5.92.064-10.163,9.477,0,25.077-.012,38.218-.012,0,5.5.045,6.293.045,10.157C69.485,225.074,51.149,225.092,38.965,225.092Z"/><path class="b" d="M40.965,225.092c0-3.388.063-6.775.064-10.163l-2,2q19.11,0,38.218-.012l-2-2c0,3.386.044,6.771.045,10.157l2-2q-19.164,0-38.327.018c-2.574,0-2.578,4,0,4q19.164,0,38.327-.018a2.03,2.03,0,0,0,2-2c0-3.386-.044-6.771-.045-10.157a2.029,2.029,0,0,0-2-2q-19.109,0-38.218.012a2.03,2.03,0,0,0-2,2c0,3.388-.063,6.775-.064,10.163C36.965,227.666,40.965,227.67,40.965,225.092Z"/><path class="c" d="M36.143,215.48c0-7.23.074-6.02.074-10.334,10.872,0,28.769-.012,43.846-.012,0,5.591.051,6.4.051,10.327C71.157,215.461,50.121,215.48,36.143,215.48Z"/><path class="b" d="M38.143,215.48c0-3.445.073-6.889.074-10.334l-2,2q21.923,0,43.846-.012l-2-2c0,3.443.049,6.885.051,10.327l2-2q-21.986,0-43.971.019c-2.573,0-2.578,4,0,4q21.985,0,43.971-.019a2.029,2.029,0,0,0,2-2c0-3.442-.051-6.884-.051-10.327a2.03,2.03,0,0,0-2-2q-21.924,0-43.846.012a2.028,2.028,0,0,0-2,2c0,3.445-.073,6.889-.074,10.334C34.143,218.054,38.143,218.058,38.143,215.48Z"/><path class="d" d="M52.864,215.06c0-8.095.017-6.74.017-11.57,2.6,0,6.89-.013,10.5-.013,0,6.259.012,7.163.012,11.562C61.248,215.039,56.211,215.06,52.864,215.06Z"/><path class="b" d="M54.864,215.06c0-3.857.017-7.713.017-11.57l-2,2c3.5,0,7-.013,10.5-.013l-2-2c0,3.854.012,7.708.012,11.562l2-2c-3.509,0-7.019.021-10.529.021a2,2,0,1,0,0,4c3.51,0,7.02-.021,10.529-.021a2.029,2.029,0,0,0,2-2c0-3.854-.012-7.708-.012-11.562a2.029,2.029,0,0,0-2-2c-3.5,0-7,.013-10.5.013a2.029,2.029,0,0,0-2,2c0,3.857-.017,7.713-.017,11.57a2,2,0,0,0,4,0Z"/><path class="d" d="M131.419,225.092c0-5.446-.047-5.775-.047-9.025-6.969,0-30.582-.009-40.246-.009,0,4.212-.033,6.061-.033,9.02C96.834,225.078,122.459,225.092,131.419,225.092Z"/><path class="e" d="M91.124,217.816c0-.539,0-1.119,0-1.752h12.455v9.022l-12.488,0C91.093,222.57,91.116,220.857,91.124,217.816Z"/><path class="b" d="M133.419,225.092c0-3.008-.046-6.016-.047-9.025a2.03,2.03,0,0,0-2-2q-16.046,0-32.089-.008H91.126a2.029,2.029,0,0,0-2,2c0,3.007-.032,6.013-.033,9.02a2.028,2.028,0,0,0,2,2q16.173,0,32.348.013h7.978c2.574,0,2.578-4,0-4q-17.006,0-34.009-.012l-6.317,0,2,2c0-3.007.032-6.013.033-9.02l-2,2q16.742,0,33.484.008h6.762l-2-2c0,3.009.046,6.017.047,9.025C129.42,227.666,133.42,227.67,133.419,225.092Z"/><path class="b" d="M101.581,216.236v8.845a2,2,0,0,0,4,0v-8.845a2,2,0,0,0-4,0Z"/><path class="f" d="M182.442,225.092c0-5.446-.047-5.775-.047-9.025-6.969,0-30.581-.009-40.246-.009,0,4.212-.033,6.061-.033,9.02C147.858,225.078,173.483,225.092,182.442,225.092Z"/><path class="e" d="M142.147,217.816c0-.539,0-1.119,0-1.752H154.6v9.022l-12.489,0C142.116,222.57,142.14,220.857,142.147,217.816Z"/><path class="b" d="M144.147,217.816q0-.876,0-1.752l-2,2H154.6l-2-2v9.022l2-2q-6.244,0-12.489,0l2,2c0-2.423.025-4.846.031-7.268a2,2,0,1,0-4,0c-.006,2.422-.03,4.845-.031,7.268a2.03,2.03,0,0,0,2,2q6.244,0,12.489,0a2.03,2.03,0,0,0,2-2v-9.022a2.03,2.03,0,0,0-2-2H142.149a2.029,2.029,0,0,0-2,2q0,.876,0,1.752a2,2,0,0,0,4,0Z"/><path class="b" d="M184.442,225.092c0-3.008-.045-6.016-.047-9.025a2.029,2.029,0,0,0-2-2q-16.044,0-32.089-.008h-8.157a2.03,2.03,0,0,0-2,2c0,3.007-.031,6.013-.033,9.02a2.03,2.03,0,0,0,2,2q16.174,0,32.348.013h7.978c2.574,0,2.579-4,0-4q-17,0-34.009-.012l-6.317,0,2,2c0-3.007.032-6.013.033-9.02l-2,2q16.743,0,33.485.008H182.4l-2-2c0,3.009.047,6.017.047,9.025C180.443,227.666,184.443,227.67,184.442,225.092Z"/><path class="b" d="M152.6,216.236v8.845a2,2,0,0,0,4,0v-8.845a2,2,0,0,0-4,0Z"/></svg>